<?xml version="1.0" encoding="UTF-8" standalone="no"?>
<!DOCTYPE svg PUBLIC "-//W3C//DTD SVG 1.1//EN" "http://www.w3.org/Graphics/SVG/1.1/DTD/svg11.dtd">
<svg width="100%" height="100%" viewBox="0 0 300 300" version="1.1" xmlns="http://www.w3.org/2000/svg" xmlns:xlink="http://www.w3.org/1999/xlink" xml:space="preserve" xmlns:serif="http://www.serif.com/" style="fill-rule:evenodd;clip-rule:evenodd;stroke-linejoin:round;stroke-miterlimit:2;">
    <g transform="matrix(4.16667,0,0,4.16667,0,0)">
        <g id="Layer15">
            <g transform="matrix(0.96,0,0,0.96,2.88,2.88)">
                <rect x="-3" y="-3" width="75" height="75" style="fill:url(#_Linear1);"/>
            </g>
            <rect x="0" y="0" width="72" height="72" style="fill:url(#_Radial2);"/>
        </g>
        <g transform="matrix(0.901515,0,0,0.901515,3.54545,3.54545)">
            <g id="Layer10">
                <g id="Layer11">
                    <path d="M53.748,54.857C54.361,54.857 54.857,54.361 54.857,53.748C54.857,50.525 54.857,41.189 54.857,37.966C54.857,37.354 54.361,36.857 53.748,36.857C49.525,36.857 34.475,36.857 30.252,36.857C29.639,36.857 29.143,37.354 29.143,37.966C29.143,41.189 29.143,50.525 29.143,53.748C29.143,54.361 29.639,54.857 30.252,54.857C34.475,54.857 49.525,54.857 53.748,54.857ZM51.857,40.966C51.857,40.672 51.74,40.39 51.532,40.182C51.324,39.974 51.042,39.857 50.748,39.857C47.287,39.857 36.713,39.857 33.252,39.857C32.958,39.857 32.676,39.974 32.468,40.182C32.26,40.39 32.143,40.672 32.143,40.966C32.143,43.252 32.143,48.462 32.143,50.748C32.143,51.042 32.26,51.324 32.468,51.532C32.676,51.74 32.958,51.857 33.252,51.857C36.713,51.857 47.287,51.857 50.748,51.857C51.042,51.857 51.324,51.74 51.532,51.532C51.74,51.324 51.857,51.042 51.857,50.748C51.857,48.462 51.857,43.252 51.857,40.966Z" style="fill:rgb(235,235,235);"/>
                </g>
                <path d="M46.538,35.143C45.925,35.143 45.429,34.646 45.429,34.034C45.429,32.39 45.429,29.325 45.429,27.681C45.429,27.068 44.932,26.571 44.319,26.571C40.304,26.571 26.553,26.571 22.538,26.571C22.244,26.571 21.961,26.688 21.753,26.896C21.545,27.104 21.429,27.386 21.429,27.681C21.429,30.78 21.429,39.506 21.429,42.605C21.429,42.899 21.545,43.181 21.753,43.389C21.961,43.597 22.244,43.714 22.538,43.714C23.615,43.714 25.242,43.714 26.319,43.714C26.614,43.714 26.896,43.831 27.104,44.039C27.312,44.247 27.429,44.529 27.429,44.824C27.429,45.459 27.429,46.255 27.429,46.891C27.429,47.503 26.932,48 26.319,48C24.342,48 20.23,48 18.252,48C17.639,48 17.143,47.503 17.143,46.891C17.143,42.082 17.143,23.061 17.143,18.252C17.143,17.958 17.26,17.676 17.468,17.468C17.676,17.26 17.958,17.143 18.252,17.143C23.246,17.143 43.612,17.143 48.605,17.143C48.899,17.143 49.181,17.26 49.389,17.468C49.597,17.676 49.714,17.958 49.714,18.252C49.714,21.475 49.714,30.811 49.714,34.034C49.714,34.646 49.218,35.143 48.605,35.143L46.538,35.143Z" style="fill:rgb(235,235,235);"/>
            </g>
        </g>
    </g>
    <defs>
        <linearGradient id="_Linear1" x1="0" y1="0" x2="1" y2="0" gradientUnits="userSpaceOnUse" gradientTransform="matrix(-82.2917,82.2917,-82.2917,-82.2917,75.125,-6.125)"><stop offset="0" style="stop-color:rgb(100,100,100);stop-opacity:1"/><stop offset="0.54" style="stop-color:rgb(47,47,47);stop-opacity:1"/><stop offset="1" style="stop-color:rgb(27,27,27);stop-opacity:1"/></linearGradient>
        <radialGradient id="_Radial2" cx="0" cy="0" r="1" gradientUnits="userSpaceOnUse" gradientTransform="matrix(24.0832,0,0,24.0832,93,76)"><stop offset="0" style="stop-color:rgb(34,74,108);stop-opacity:0"/><stop offset="0.56" style="stop-color:rgb(49,61,72);stop-opacity:0.25"/><stop offset="1" style="stop-color:rgb(56,56,56);stop-opacity:0.35"/></radialGradient>
    </defs>
</svg>
