<svg xmlns="http://www.w3.org/2000/svg" viewBox="0 0 256 256"><defs><style>.a{fill:#383838;}.b{fill:silver;}</style></defs><title>invoke</title><rect class="a" width="256" height="256"/><path class="b" d="M128,79.5A48.5,48.5,0,1,1,79.5,128,48.56,48.56,0,0,1,128,79.5m0-14A62.5,62.5,0,1,0,190.5,128,62.5,62.5,0,0,0,128,65.5Z"/><polygon class="b" points="110 121 60 121 60 135 110 135 110 121 110 121"/><polygon class="b" points="196 121 146 121 146 135 196 135 196 121 196 121"/><polygon class="b" points="135 60 121 60 121 110 135 110 135 60 135 60"/><polygon class="b" points="135 146 121 146 121 196 135 196 135 146 135 146"/></svg>