<?xml version="1.0" encoding="UTF-8" standalone="no"?>
<!DOCTYPE svg PUBLIC "-//W3C//DTD SVG 1.1//EN" "http://www.w3.org/Graphics/SVG/1.1/DTD/svg11.dtd">
<svg width="100%" height="100%" viewBox="0 0 300 300" version="1.1" xmlns="http://www.w3.org/2000/svg" xmlns:xlink="http://www.w3.org/1999/xlink" xml:space="preserve" xmlns:serif="http://www.serif.com/" style="fill-rule:evenodd;clip-rule:evenodd;stroke-linejoin:round;stroke-miterlimit:2;">
    <g transform="matrix(4.16667,0,0,4.16667,0,0)">
        <g>
            <g id="Layer15">
                <g transform="matrix(0.96,0,0,0.96,2.88,2.88)">
                    <rect x="-3" y="-3" width="75" height="75" style="fill:url(#_Linear1);"/>
                </g>
                <rect x="0" y="0" width="72" height="72" style="fill:url(#_Radial2);"/>
            </g>
            <g id="Layer151" serif:id="Layer15">
                <g transform="matrix(0.96,0,0,0.96,2.88,2.88)">
                    <rect x="-3" y="-3" width="75" height="75" style="fill:url(#_Linear3);"/>
                </g>
                <rect x="0" y="0" width="72" height="72" style="fill:url(#_Radial4);"/>
            </g>
            <g id="Layer152" serif:id="Layer15">
                <g transform="matrix(0.96,0,0,0.96,2.88,2.88)">
                    <rect x="-3" y="-3" width="75" height="75" style="fill:url(#_Linear5);"/>
                </g>
                <rect x="0" y="0" width="72" height="72" style="fill:url(#_Radial6);"/>
            </g>
            <g transform="matrix(0.75,0,0,0.75,9,9)">
                <g id="Layer1" transform="matrix(0.75,0,0,1,11,7.10543e-15)">
                    <g transform="matrix(6.12323e-17,1,-1,6.12323e-17,72,0)">
                        <g id="Layer11" serif:id="Layer1">
                            <path d="M34.891,14.219C35.138,13.724 35.554,13.427 36,13.427C36.446,13.427 36.862,13.724 37.109,14.219C41.038,22.077 54.288,48.576 58.618,57.236C58.891,57.782 58.916,58.483 58.684,59.061C58.452,59.639 58,60 57.509,60C49.24,60 22.76,60 14.491,60C14,60 13.548,59.639 13.316,59.061C13.084,58.483 13.109,57.782 13.382,57.236C17.712,48.576 30.962,22.077 34.891,14.219Z" style="fill:rgb(235,235,235);"/>
                        </g>
                    </g>
                    <g transform="matrix(6.12323e-17,1,-1,6.12323e-17,72,0)">
                        <g id="Layer12" serif:id="Layer1">
                            <path d="M34.891,14.219C35.138,13.724 35.554,13.427 36,13.427C36.446,13.427 36.862,13.724 37.109,14.219C41.038,22.077 54.288,48.576 58.618,57.236C58.891,57.782 58.916,58.483 58.684,59.061C58.452,59.639 58,60 57.509,60C49.24,60 22.76,60 14.491,60C14,60 13.548,59.639 13.316,59.061C13.084,58.483 13.109,57.782 13.382,57.236C17.712,48.576 30.962,22.077 34.891,14.219Z" style="fill:rgb(235,235,235);"/>
                        </g>
                    </g>
                </g>
            </g>
        </g>
    </g>
    <defs>
        <linearGradient id="_Linear1" x1="0" y1="0" x2="1" y2="0" gradientUnits="userSpaceOnUse" gradientTransform="matrix(-82.2917,82.2917,-82.2917,-82.2917,75.125,-6.125)"><stop offset="0" style="stop-color:rgb(72,171,255);stop-opacity:1"/><stop offset="0.54" style="stop-color:rgb(45,101,149);stop-opacity:1"/><stop offset="1" style="stop-color:rgb(34,74,108);stop-opacity:1"/></linearGradient>
        <radialGradient id="_Radial2" cx="0" cy="0" r="1" gradientUnits="userSpaceOnUse" gradientTransform="matrix(18.3576,0,0,18.3576,93,76)"><stop offset="0" style="stop-color:rgb(166,0,255);stop-opacity:0.53"/><stop offset="0.47" style="stop-color:rgb(129,21,214);stop-opacity:0.38"/><stop offset="1" style="stop-color:rgb(34,74,108);stop-opacity:0"/></radialGradient>
        <linearGradient id="_Linear3" x1="0" y1="0" x2="1" y2="0" gradientUnits="userSpaceOnUse" gradientTransform="matrix(-82.2917,82.2917,-82.2917,-82.2917,75.125,-6.125)"><stop offset="0" style="stop-color:rgb(78,78,78);stop-opacity:1"/><stop offset="0.54" style="stop-color:rgb(34,34,34);stop-opacity:1"/><stop offset="1" style="stop-color:rgb(17,17,17);stop-opacity:1"/></linearGradient>
        <radialGradient id="_Radial4" cx="0" cy="0" r="1" gradientUnits="userSpaceOnUse" gradientTransform="matrix(19.8494,0,0,19.8494,93,76)"><stop offset="0" style="stop-color:rgb(34,74,108);stop-opacity:0"/><stop offset="0.53" style="stop-color:rgb(27,29,128);stop-opacity:0.25"/><stop offset="1" style="stop-color:rgb(24,11,136);stop-opacity:0.35"/></radialGradient>
        <linearGradient id="_Linear5" x1="0" y1="0" x2="1" y2="0" gradientUnits="userSpaceOnUse" gradientTransform="matrix(-82.2917,82.2917,-82.2917,-82.2917,75.125,-6.125)"><stop offset="0" style="stop-color:rgb(100,100,100);stop-opacity:1"/><stop offset="0.54" style="stop-color:rgb(47,47,47);stop-opacity:1"/><stop offset="1" style="stop-color:rgb(27,27,27);stop-opacity:1"/></linearGradient>
        <radialGradient id="_Radial6" cx="0" cy="0" r="1" gradientUnits="userSpaceOnUse" gradientTransform="matrix(24.0832,0,0,24.0832,93,76)"><stop offset="0" style="stop-color:rgb(34,74,108);stop-opacity:0"/><stop offset="0.56" style="stop-color:rgb(49,61,72);stop-opacity:0.25"/><stop offset="1" style="stop-color:rgb(56,56,56);stop-opacity:0.35"/></radialGradient>
    </defs>
</svg>
