<?xml version="1.0" encoding="UTF-8" standalone="no"?>
<!DOCTYPE svg PUBLIC "-//W3C//DTD SVG 1.1//EN" "http://www.w3.org/Graphics/SVG/1.1/DTD/svg11.dtd">
<svg width="100%" height="100%" viewBox="0 0 117 117" version="1.1" xmlns="http://www.w3.org/2000/svg" xmlns:xlink="http://www.w3.org/1999/xlink" xml:space="preserve" xmlns:serif="http://www.serif.com/" style="fill-rule:evenodd;clip-rule:evenodd;stroke-linejoin:round;stroke-miterlimit:2;">
    <g transform="matrix(4.16667,0,0,4.16667,0,0)">
        <g transform="matrix(0.106733,0,0,0.106733,0.341404,-0.00644151)">
            <path d="M166.872,131.237L212.781,51.962L234.966,131.237L212.781,210.493L166.872,131.237ZM144.496,144.111L190.412,223.373L110.446,202.887L52.675,144.111L144.496,144.111ZM190.402,39.078L144.496,118.353L52.675,118.353L110.446,59.573L190.402,39.078ZM255.941,104.259L227.933,0.06L123.393,27.985L107.918,55.192L76.517,54.967L0,131.244L76.517,207.503L76.52,207.503L107.908,207.271L123.405,234.478L227.933,262.398L255.941,158.219L240.035,131.237L255.941,104.259Z" style="fill:rgb(200,200,200);fill-rule:nonzero;"/>
        </g>
    </g>
</svg>
