<?xml version="1.0" encoding="UTF-8" standalone="no"?>
<!DOCTYPE svg PUBLIC "-//W3C//DTD SVG 1.1//EN" "http://www.w3.org/Graphics/SVG/1.1/DTD/svg11.dtd">
<svg width="100%" height="100%" viewBox="0 0 84 84" version="1.1" xmlns="http://www.w3.org/2000/svg" xmlns:xlink="http://www.w3.org/1999/xlink" xml:space="preserve" xmlns:serif="http://www.serif.com/" style="fill-rule:evenodd;clip-rule:evenodd;stroke-linejoin:round;stroke-miterlimit:2;">
    <g transform="matrix(4.16667,0,0,4.16667,0,0)">
        <g transform="matrix(0.500842,0,0,0.500842,-8.0303,-8.0303)">
            <g id="Layer10">
                <g id="Layer11">
                    <path d="M52.86,54.857C53.39,54.857 53.898,54.647 54.272,54.272C54.647,53.898 54.857,53.39 54.857,52.861C54.857,49.398 54.857,42.317 54.857,38.854C54.857,38.324 54.647,37.816 54.272,37.442C53.898,37.067 53.39,36.857 52.86,36.857C48.064,36.857 35.936,36.857 31.14,36.857C30.61,36.857 30.102,37.067 29.728,37.442C29.353,37.816 29.143,38.324 29.143,38.854C29.143,42.317 29.143,49.398 29.143,52.861C29.143,53.39 29.353,53.898 29.728,54.272C30.102,54.647 30.61,54.857 31.14,54.857C35.936,54.857 48.064,54.857 52.86,54.857ZM51.857,41.854C51.857,41.324 51.647,40.816 51.272,40.442C50.898,40.068 50.39,39.857 49.86,39.857C46.08,39.857 37.92,39.857 34.14,39.857C33.61,39.857 33.102,40.068 32.728,40.442C32.353,40.816 32.143,41.324 32.143,41.854C32.143,44.074 32.143,47.64 32.143,49.86C32.143,50.39 32.353,50.898 32.728,51.272C33.102,51.647 33.61,51.857 34.14,51.857C37.92,51.857 46.08,51.857 49.86,51.857C50.39,51.857 50.898,51.647 51.272,51.272C51.647,50.898 51.857,50.39 51.857,49.86C51.857,47.64 51.857,44.074 51.857,41.854Z" style="fill:rgb(238,237,238);"/>
                </g>
                <path d="M47.425,35.143C46.322,35.143 45.429,34.249 45.429,33.146C45.429,31.769 45.429,29.945 45.429,28.568C45.429,27.465 44.535,26.571 43.432,26.571C38.913,26.571 27.944,26.571 23.425,26.571C22.323,26.571 21.429,27.465 21.429,28.568C21.429,31.867 21.429,38.419 21.429,41.718C21.429,42.82 22.322,43.714 23.425,43.714C24.071,43.714 24.786,43.714 25.432,43.714C26.535,43.714 27.429,44.608 27.429,45.711C27.429,45.808 27.429,45.906 27.429,46.003C27.429,47.106 26.535,48 25.432,48C23.617,48 20.954,48 19.139,48C18.61,48 18.102,47.79 17.728,47.415C17.353,47.041 17.143,46.533 17.143,46.003C17.143,40.425 17.143,24.718 17.143,19.14C17.143,18.61 17.353,18.102 17.728,17.728C18.102,17.353 18.61,17.143 19.139,17.143C24.964,17.143 41.893,17.143 47.718,17.143C48.82,17.143 49.714,18.037 49.714,19.139C49.714,22.602 49.714,29.683 49.714,33.146C49.714,34.249 48.82,35.143 47.718,35.143C47.62,35.143 47.523,35.143 47.425,35.143Z" style="fill:rgb(238,237,238);"/>
            </g>
        </g>
    </g>
</svg>
