<?xml version="1.0" encoding="UTF-8" standalone="no"?>
<!DOCTYPE svg PUBLIC "-//W3C//DTD SVG 1.1//EN" "http://www.w3.org/Graphics/SVG/1.1/DTD/svg11.dtd">
<svg width="100%" height="100%" viewBox="0 0 84 84" version="1.1" xmlns="http://www.w3.org/2000/svg" xmlns:xlink="http://www.w3.org/1999/xlink" xml:space="preserve" xmlns:serif="http://www.serif.com/" style="fill-rule:evenodd;clip-rule:evenodd;stroke-linejoin:round;stroke-miterlimit:2;">
    <g transform="matrix(4.16667,0,0,4.16667,0,0)">
        <g transform="matrix(0.416667,0,0,0.416667,-5,-5)">
            <g id="Layer4">
                <g transform="matrix(0.916667,0,0,0.916667,3,3)">
                    <path d="M36,12C49.246,12 60,22.754 60,36C60,49.246 49.246,60 36,60C22.754,60 12,49.246 12,36C12,22.754 22.754,12 36,12ZM36,18.72C45.537,18.72 53.28,26.463 53.28,36C53.28,45.537 45.537,53.28 36,53.28C26.463,53.28 18.72,45.537 18.72,36C18.72,26.463 26.463,18.72 36,18.72Z" style="fill:rgb(238,237,238);"/>
                </g>
                <g transform="matrix(0.842105,0,0,0.625,6.10526,17.5)">
                    <path d="M36.212,44C36.968,44 37.693,44.405 38.228,45.125C38.762,45.845 39.063,46.822 39.062,47.84C39.063,52.319 39.063,59.681 39.063,64.16C39.063,65.178 38.762,66.155 38.228,66.875C37.693,67.595 36.968,68 36.212,68C35.743,68 35.257,68 34.788,68C34.032,68 33.307,67.595 32.772,66.875C32.238,66.155 31.937,65.178 31.938,64.16C31.937,59.681 31.937,52.319 31.937,47.84C31.937,46.822 32.238,45.845 32.772,45.125C33.307,44.405 34.032,44 34.788,44C35.257,44 35.743,44 36.212,44Z" style="fill:rgb(238,237,238);"/>
                </g>
                <g transform="matrix(0.842105,0,0,0.625,6.10526,-15.5)">
                    <path d="M36.212,44C36.968,44 37.693,44.405 38.228,45.125C38.762,45.845 39.063,46.822 39.062,47.84C39.062,52.319 39.062,59.681 39.062,64.16C39.063,65.178 38.762,66.155 38.228,66.875C37.693,67.595 36.968,68 36.212,68C35.743,68 35.257,68 34.788,68C34.032,68 33.307,67.595 32.772,66.875C32.238,66.155 31.937,65.178 31.938,64.16C31.937,59.681 31.937,52.319 31.937,47.84C31.937,46.822 32.238,45.845 32.772,45.125C33.307,44.405 34.032,44 34.788,44C35.257,44 35.743,44 36.212,44Z" style="fill:rgb(238,237,238);"/>
                </g>
                <g transform="matrix(5.15641e-17,0.842105,-0.625,3.82702e-17,54.5,6.10526)">
                    <path d="M36.212,44C36.968,44 37.693,44.405 38.228,45.125C38.762,45.845 39.063,46.822 39.062,47.84C39.062,52.319 39.063,59.681 39.063,64.16C39.063,65.178 38.762,66.155 38.228,66.875C37.693,67.595 36.968,68 36.212,68C35.743,68 35.257,68 34.788,68C34.032,68 33.307,67.595 32.772,66.875C32.238,66.155 31.937,65.178 31.938,64.16C31.937,59.681 31.937,52.319 31.937,47.84C31.937,46.822 32.238,45.845 32.772,45.125C33.307,44.405 34.032,44 34.788,44C35.257,44 35.743,44 36.212,44Z" style="fill:rgb(238,237,238);"/>
                </g>
                <g transform="matrix(5.15641e-17,0.842105,-0.625,3.82702e-17,87.5,6.10526)">
                    <path d="M36.212,44C36.968,44 37.693,44.405 38.228,45.125C38.762,45.845 39.063,46.822 39.062,47.84C39.062,52.319 39.062,59.681 39.062,64.16C39.063,65.178 38.762,66.155 38.228,66.875C37.693,67.595 36.968,68 36.212,68C35.743,68 35.257,68 34.788,68C34.032,68 33.307,67.595 32.772,66.875C32.238,66.155 31.937,65.178 31.938,64.16C31.937,59.681 31.937,52.319 31.937,47.84C31.937,46.822 32.238,45.845 32.772,45.125C33.307,44.405 34.032,44 34.788,44C35.257,44 35.743,44 36.212,44Z" style="fill:rgb(238,237,238);"/>
                </g>
            </g>
        </g>
    </g>
</svg>
