<?xml version="1.0" encoding="UTF-8" standalone="no"?>
<!DOCTYPE svg PUBLIC "-//W3C//DTD SVG 1.1//EN" "http://www.w3.org/Graphics/SVG/1.1/DTD/svg11.dtd">
<svg width="100%" height="100%" viewBox="0 0 84 84" version="1.1" xmlns="http://www.w3.org/2000/svg" xmlns:xlink="http://www.w3.org/1999/xlink" xml:space="preserve" xmlns:serif="http://www.serif.com/" style="fill-rule:evenodd;clip-rule:evenodd;stroke-linejoin:round;stroke-miterlimit:2;">
    <g transform="matrix(4.16667,0,0,4.16667,0,0)">
        <g transform="matrix(0.555556,0,0,0.555556,-10,-10)">
            <g id="Layer3">
                <path d="M50,19C50,18.448 49.552,18 49,18C47.084,18 42.916,18 41,18C40.448,18 40,18.448 40,19C40,24.17 40,47.83 40,53C40,53.552 40.448,54 41,54C42.916,54 47.084,54 49,54C49.552,54 50,53.552 50,53C50,47.83 50,24.17 50,19ZM32,19C32,18.448 31.552,18 31,18C29.084,18 24.916,18 23,18C22.448,18 22,18.448 22,19C22,24.17 22,47.83 22,53C22,53.552 22.448,54 23,54C24.916,54 29.084,54 31,54C31.552,54 32,53.552 32,53C32,47.83 32,24.17 32,19Z" style="fill:rgb(238,237,238);"/>
            </g>
        </g>
    </g>
</svg>
