<?xml version="1.0" encoding="UTF-8" standalone="no"?>
<!DOCTYPE svg PUBLIC "-//W3C//DTD SVG 1.1//EN" "http://www.w3.org/Graphics/SVG/1.1/DTD/svg11.dtd">
<svg width="100%" height="100%" viewBox="0 0 84 84" version="1.1" xmlns="http://www.w3.org/2000/svg" xmlns:xlink="http://www.w3.org/1999/xlink" xml:space="preserve" xmlns:serif="http://www.serif.com/" style="fill-rule:evenodd;clip-rule:evenodd;stroke-linejoin:round;stroke-miterlimit:2;">
    <g transform="matrix(4.16667,0,0,4.16667,0,0)">
        <g transform="matrix(1.91351e-17,0.416667,-0.3125,2.55135e-17,22.0833,-5)">
            <g id="Layer1">
                <path d="M34.003,15.994C34.448,15.104 35.198,14.569 36,14.569C36.802,14.569 37.552,15.104 37.997,15.994C42.36,24.72 52.734,45.469 57.512,55.025C58.003,56.007 58.049,57.269 57.632,58.31C57.214,59.35 56.401,60 55.516,60C46.365,60 25.635,60 16.484,60C15.599,60 14.786,59.35 14.368,58.31C13.951,57.269 13.997,56.007 14.488,55.025C19.266,45.469 29.64,24.72 34.003,15.994Z" style="fill:rgb(238,238,238);"/>
            </g>
        </g>
    </g>
</svg>
