<?xml version="1.0" encoding="UTF-8" standalone="no"?>
<!DOCTYPE svg PUBLIC "-//W3C//DTD SVG 1.1//EN" "http://www.w3.org/Graphics/SVG/1.1/DTD/svg11.dtd">
<svg width="100%" height="100%" viewBox="0 0 800 800" version="1.1" xmlns="http://www.w3.org/2000/svg" xmlns:xlink="http://www.w3.org/1999/xlink" xml:space="preserve" xmlns:serif="http://www.serif.com/" style="fill-rule:evenodd;clip-rule:evenodd;stroke-linejoin:round;stroke-miterlimit:2;">
    <g>
        <g>
            <path d="M756.166,320.936L713.758,320.936C705.875,290.205 693.572,261.423 677.528,235.095L708.016,204.537C716.246,196.307 720.771,185.326 720.771,173.667C720.771,162.026 716.212,151.028 708.016,142.814L657.203,92.054C640.724,75.557 611.924,75.575 595.515,92.037L563.74,123.62C537.707,108.446 509.795,96.752 479.046,89.235L479.046,43.852C479.046,19.786 459.818,0 435.751,0L363.918,0C339.852,0 320.919,19.786 320.919,43.852L320.919,89.218C290.188,96.718 262.102,108.429 236.034,123.62L204.276,92.037C187.815,75.54 158.998,75.557 142.484,92.019L91.706,142.779C83.562,150.906 78.916,162.147 78.916,173.632C78.916,185.274 83.423,196.237 91.671,204.468L122.159,235.095C106.132,261.423 93.812,290.205 85.946,320.936L43.521,320.936C19.437,320.936 0,340.287 0,364.301L0,436.082C0,460.166 19.437,479.081 43.521,479.081L85.946,479.081C93.812,509.812 106.114,538.768 122.124,565.097L91.636,595.776C83.388,604.007 78.864,615.022 78.864,626.681C78.864,638.34 83.405,649.355 91.636,657.586L142.449,708.381C150.697,716.612 161.643,721.136 173.284,721.136C184.926,721.136 195.889,716.595 204.137,708.381L236.034,676.78C262.102,691.971 290.188,703.665 320.919,711.2L320.919,756.514C320.919,780.58 339.852,799.983 363.918,799.983L435.751,799.983C459.818,799.983 479.046,780.58 479.046,756.514L479.046,711.183C509.795,703.665 537.707,691.971 563.774,676.78L595.393,708.311C603.641,716.577 614.604,721.102 626.281,721.102C637.94,721.102 648.92,716.56 657.151,708.346L707.963,657.586C716.194,649.372 720.701,638.392 720.736,626.75C720.736,615.091 716.177,604.146 707.963,595.898L677.511,565.097C693.52,538.751 705.823,509.777 713.706,479.081L756.131,479.081C780.197,479.081 799.983,460.166 799.983,436.082L799.983,364.301C800,340.287 780.232,320.936 756.166,320.936ZM399.817,536.837C323.633,536.837 261.858,475.636 261.858,400.2C261.858,324.712 323.633,263.598 399.817,263.598C476.019,263.598 537.829,324.712 537.829,400.2C537.811,475.653 476.019,536.837 399.817,536.837Z" style="fill:rgb(238,237,238);fill-rule:nonzero;"/>
        </g>
    </g>
</svg>
