<?xml version="1.0" encoding="UTF-8" standalone="no"?>
<!DOCTYPE svg PUBLIC "-//W3C//DTD SVG 1.1//EN" "http://www.w3.org/Graphics/SVG/1.1/DTD/svg11.dtd">
<svg width="100%" height="100%" viewBox="0 0 84 84" version="1.1" xmlns="http://www.w3.org/2000/svg" xmlns:xlink="http://www.w3.org/1999/xlink" xml:space="preserve" xmlns:serif="http://www.serif.com/" style="fill-rule:evenodd;clip-rule:evenodd;stroke-linejoin:round;stroke-miterlimit:2;">
    <g transform="matrix(4.16667,0,0,4.16667,0,0)">
        <g transform="matrix(0.416667,0,0,0.416667,-5,-5)">
            <g id="Layer2">
                <g transform="matrix(8.42642e-17,1.37614,-1.61633,9.89715e-17,95.7934,-21.2567)">
                    <path d="M40.167,34.917C40.167,34.917 39.175,34.033 38.282,33.238C37.932,32.927 37.759,32.502 37.806,32.073C37.853,31.644 38.117,31.254 38.529,31.004C38.713,30.892 38.899,30.779 39.077,30.671C39.787,30.239 40.763,30.32 41.361,30.861C42.833,32.193 45.507,34.612 47.022,35.982C47.654,36.554 47.654,37.446 47.022,38.018C45.507,39.388 42.833,41.807 41.361,43.139C40.763,43.68 39.787,43.761 39.077,43.329C38.899,43.221 38.713,43.108 38.529,42.996C38.117,42.746 37.853,42.356 37.806,41.927C37.759,41.498 37.932,41.073 38.282,40.762C39.175,39.967 40.167,39.083 40.167,39.083L25.911,39.083C24.947,39.083 24.167,38.419 24.167,37.598C24.167,37.21 24.167,36.79 24.167,36.402C24.167,36.008 24.35,35.63 24.677,35.352C25.005,35.073 25.448,34.917 25.911,34.917C29.731,34.917 38.5,34.917 38.5,34.917" style="fill:rgb(238,237,238);"/>
                </g>
                <g transform="matrix(2,0,0,2,-30,-48)">
                    <circle cx="33" cy="51" r="3" style="fill:rgb(238,237,238);"/>
                </g>
            </g>
        </g>
    </g>
</svg>
